<svg width="18" height="18" viewBox="0 0 18 18" fill="none" xmlns="http://www.w3.org/2000/svg">
<path d="M9.75001 3H4.67626C2.84626 3 1.93126 3 1.60876 3.5745L1.58026 3.6285C1.28926 4.2195 1.80751 4.97325 2.84476 6.4815C3.67201 7.6845 4.08601 8.286 4.09576 8.967V9.033C4.08601 9.714 3.67201 10.3155 2.84476 11.5185C1.80751 13.026 1.28926 13.7805 1.58026 14.3723L1.60801 14.4247C1.93051 15 2.84551 15 4.67551 15H9.75001C11.2223 15 11.958 15 12.5918 14.6835C13.2248 14.3662 13.6665 13.7775 14.55 12.6C15.8498 10.8667 16.5 9.99975 16.5 9C16.5 8.00025 15.8498 7.13325 14.55 5.4C13.6665 4.2225 13.2248 3.63375 12.5918 3.3165C11.958 3 11.2223 3 9.75001 3Z" stroke="#033B4D" stroke-width="1.4"/>
</svg>
